<svg width="520" height="379" viewBox="0 0 520 379" fill="none" xmlns="http://www.w3.org/2000/svg">
<g clip-path="url(#clip0_2640_8615)">
<path fill-rule="evenodd" clip-rule="evenodd" d="M22.1321 270.854L193.727 188.568L411.733 239.441C414.349 240.059 414.937 243.492 412.689 244.937L259.579 344.128C256.197 346.305 252.028 346.881 248.173 345.677L22.4262 274.874C20.5567 274.277 20.3572 271.713 22.1321 270.854Z" fill="#BABBBC"/>
<path fill-rule="evenodd" clip-rule="evenodd" d="M83.6328 250.034C83.6328 250.034 279.594 306.873 288.92 308.935C298.257 310.997 303.708 308.841 323.139 296.531C349.354 279.94 408.148 243.837 413.347 240.739C418.525 237.63 410.238 233.495 395.713 230.407C381.198 227.298 247.455 194.231 223.604 189.07C175.91 209.733 83.6328 250.034 83.6328 250.034Z" fill="white"/>
<path fill-rule="evenodd" clip-rule="evenodd" d="M236.375 219.008C237.992 219.604 341.76 244.968 341.76 244.968L275.792 281.594L236.375 219.008Z" fill="#D8D8D8"/>
<path fill-rule="evenodd" clip-rule="evenodd" d="M12.7112 116.412C1.30513 113.826 -1.97174 122.137 3.77329 132.511C11.8499 147.092 57.4426 230.969 61.1711 237.428C66.4435 246.535 69.3948 254.501 95.3892 262.226C121.898 270.097 253.971 307.875 264.39 310.796C272.141 312.962 301.717 322.153 288.231 297.355C274.756 272.557 231.432 186.629 228.323 180.432C225.204 174.235 224.406 166.049 204.965 161.642C185.251 157.183 27.079 119.667 12.7112 116.412Z" fill="#E9E8E8"/>
<path fill-rule="evenodd" clip-rule="evenodd" d="M438.039 352.502C438.039 365.752 411.764 376.498 379.355 376.498C346.944 376.498 320.672 365.752 320.672 352.502C320.672 339.251 346.944 328.508 379.355 328.508C411.764 328.508 438.039 339.251 438.039 352.502Z" fill="#BABBBC"/>
<path fill-rule="evenodd" clip-rule="evenodd" d="M411.189 257.748L357.016 275.884V343.828C357.016 357.581 375.377 368.729 398.033 368.729C420.686 368.729 439.05 357.581 439.05 343.828V275.884L411.189 257.748Z" fill="#EC0000"/>
<path fill-rule="evenodd" clip-rule="evenodd" d="M439.05 275.883C439.05 289.636 420.686 300.787 398.033 300.787C375.38 300.787 357.016 289.636 357.016 275.883C357.016 262.129 375.38 250.979 398.033 250.979C420.686 250.979 439.05 262.129 439.05 275.883Z" fill="white"/>
<path fill-rule="evenodd" clip-rule="evenodd" d="M363.11 288.947C370.334 296.052 383.269 300.784 398.031 300.784C412.79 300.784 425.725 296.052 432.95 288.947C433.449 287.505 433.715 286.007 433.715 284.475C433.715 272.51 417.737 262.811 398.031 262.811C378.322 262.811 362.344 272.51 362.344 284.475C362.344 286.007 362.61 287.505 363.11 288.947Z" fill="#823535"/>
<path fill-rule="evenodd" clip-rule="evenodd" d="M398.033 250.98C375.38 250.98 357.016 262.128 357.016 275.884C357.016 289.635 375.38 300.785 398.033 300.785C420.686 300.785 439.05 289.635 439.05 275.884C439.05 262.128 420.686 250.98 398.033 250.98ZM398.034 253.844C418.71 253.844 436.178 263.937 436.178 275.884C436.178 287.829 418.71 297.922 398.034 297.922C377.358 297.922 359.891 287.829 359.891 275.884C359.891 263.937 377.358 253.844 398.034 253.844Z" fill="#EC0000"/>
<path fill-rule="evenodd" clip-rule="evenodd" d="M433.027 303.339L431.529 302.477V302.505L431.503 302.491V302.516L431.481 302.505V302.53L431.458 302.516V302.544L431.433 302.53V302.556L431.41 302.542V302.57L431.387 302.556V302.581L431.364 302.57V302.595L431.339 302.581V302.609L431.316 302.595V302.624L431.294 302.609V302.635L431.268 302.624V302.649L431.245 302.635V302.663L431.223 302.649V302.674L431.197 302.66V302.689L431.174 302.674V302.7L431.152 302.689V302.714L431.129 302.7V302.728L431.103 302.714V302.742L431.081 302.728V302.754L431.058 302.74V302.768L431.033 302.754V302.779L431.01 302.765V302.793L430.987 302.779V302.807L430.962 302.793V302.819L430.939 302.807V302.833L430.916 302.819V302.847L430.894 302.833V302.861L430.868 302.847V302.872L430.845 302.858V302.887L430.823 302.872V302.898L430.797 302.884V302.912L430.774 302.898V302.926L430.752 302.912V302.937L430.726 302.926V302.952L430.704 302.937V302.966L430.678 302.952V302.977L430.658 302.966V302.991L430.633 302.977V303.002L430.61 302.991V303.017L430.584 303.002V303.031L430.562 303.017V303.045L430.539 303.031V303.056L430.513 303.045V303.07L430.491 303.056V303.084L430.468 303.07V303.096L430.445 303.082V303.11L430.423 303.096V303.121L430.397 303.11V303.135L430.372 303.121V303.149L430.349 303.135V303.164L430.326 303.149V303.175L430.304 303.164V303.189L430.278 303.175V303.203L430.255 303.189V303.215L430.233 303.2V303.229L430.207 303.215V303.24L430.184 303.226V303.254L430.162 303.24V303.268L430.136 303.254V303.28L430.113 303.268V303.294L430.091 303.28V303.308L430.068 303.294V303.319L430.043 303.305V303.333L430.02 303.319V303.345L429.997 303.333V303.359L429.972 303.345V303.373L429.949 303.359V303.387L429.926 303.373V303.398L429.901 303.387V303.412L429.878 303.398V303.426L429.855 303.412V303.438L429.833 303.424V303.452L429.807 303.438V303.463L429.785 303.452V303.477L429.762 303.463V303.491L429.736 303.477V303.506L429.714 303.491V303.517L429.691 303.506V303.531L429.665 303.517V303.542L429.643 303.531V303.556L429.62 303.542V303.571L429.597 303.556V303.582L429.572 303.571V303.596L429.549 303.582V303.61L429.526 303.596V303.624L429.501 303.61V303.636L429.478 303.622V303.65L429.455 303.636V303.661L429.43 303.647V303.675L429.407 303.661V303.689L429.384 303.675V303.701L429.362 303.689V303.715L429.336 303.701V303.729L429.314 303.715V303.743L429.291 303.729V303.754L429.265 303.74V303.769L429.243 303.754V303.78L429.22 303.766V303.794L429.194 303.78V303.808L429.172 303.794V303.819L429.149 303.808V303.834L429.126 303.819V303.848L429.101 303.834V303.859L429.078 303.848V303.873L429.055 303.859V303.884L429.03 303.873V303.899L429.007 303.884V303.913L428.985 303.899V303.927L428.959 303.913V303.938L428.936 303.927V303.952L428.914 303.938V303.966L428.891 303.952V303.978L428.865 303.964V303.992L428.843 303.978V304.003L428.82 303.989V304.017L428.795 304.003V304.031L428.772 304.017V304.046L428.749 304.031V304.057L428.724 304.046V304.071L428.701 304.057V304.085L428.678 304.071V304.097L428.653 304.082V304.111L428.63 304.097V304.122L428.607 304.108V304.136L428.585 304.122V304.15L428.559 304.136V304.164L428.536 304.15V304.176L428.514 304.162V304.19L428.488 304.176V304.201L428.465 304.187V304.215L428.443 304.201V304.227L428.417 304.215V304.241L428.394 304.227V304.255L428.372 304.241V304.269L428.349 304.255V304.28L428.324 304.269V304.294L428.301 304.28V304.309L428.275 304.294V304.32L428.253 304.306V304.334L428.23 304.32V304.345L428.207 304.334V304.359L428.182 304.345V304.374L428.159 304.359V304.388L428.134 304.374V304.399L428.114 304.388V304.413L428.088 304.399V304.424L428.066 304.413V304.439L428.04 304.424V304.453L428.017 304.439V304.464L427.995 304.453V304.478L427.969 304.464V304.492L427.946 304.478V304.506L427.924 304.492V304.518L427.898 304.504V304.532L427.875 304.518V304.543L427.853 304.532V304.557L427.827 304.543V304.572L427.805 304.557V304.583L427.782 304.572V304.597L427.759 304.583V304.611L427.734 304.597V304.622L427.711 304.611V304.637L427.688 304.622V304.651L427.663 304.637V304.662L427.64 304.648V304.676L427.617 304.662V304.69L427.592 304.676V304.702L427.569 304.69V304.716L427.546 304.702V304.73L427.524 304.716V304.741L427.498 304.727V304.755L427.475 304.741V304.767L427.453 304.755V304.781L427.427 304.767V304.795L427.404 304.781V304.809L427.382 304.795V304.82L427.356 304.809V304.834L427.334 304.82V304.848L427.311 304.834V304.86L427.288 304.846V304.874L427.263 304.86V304.885L427.24 304.871V304.899L427.217 304.885V304.913L427.192 304.899V304.928L427.169 304.913V304.939L427.146 304.928V304.953L427.121 304.939V304.964L427.098 304.953V304.979L427.076 304.964V304.993L427.053 304.979V305.004L427.027 304.99V305.018L427.005 305.004V305.032L426.982 305.018V305.046L426.956 305.032V305.058L426.934 305.044V305.072L426.911 305.058V305.083L426.885 305.069V305.097L426.863 305.083V305.109L426.84 305.097V305.123L426.817 305.109V305.137L426.792 305.123V305.151L426.769 305.137V305.165L426.746 305.151V305.176L426.721 305.162V305.191L426.698 305.176V305.202L426.676 305.188V305.216L426.65 305.202V305.227L426.627 305.216V305.241L426.605 305.227V305.256L426.582 305.241V305.27L426.556 305.256V305.281L426.534 305.267V305.295L426.511 305.281V305.306L426.485 305.295V305.321L426.463 305.306V305.335L426.44 305.321V305.346L426.415 305.335V305.36L426.392 305.346V305.374L426.369 305.36V305.388L426.347 305.374V305.4L426.321 305.386V305.414L426.298 305.4V305.425L426.276 305.414V305.439L426.25 305.425V305.454L426.227 305.439V305.465L426.205 305.454V305.479L426.179 305.465V305.493L426.156 305.479V305.504L426.134 305.493V305.519L426.111 305.504V305.533L426.086 305.519V305.544L426.063 305.53V305.558L426.04 305.544V305.572L426.015 305.558V305.584L425.992 305.572V305.598L425.969 305.584V305.612L425.944 305.598V305.623L425.921 305.609V305.637L425.898 305.623V305.649L425.876 305.637V305.663L425.85 305.649V305.677L425.827 305.663V305.691L425.805 305.677V305.702L425.779 305.691V305.716L425.756 305.702V305.731L425.734 305.716V305.742L425.708 305.728V305.756L425.686 305.742V305.767L425.66 305.753V305.781L425.64 305.767V305.796L425.615 305.781V305.81L425.589 305.796V305.821L425.566 305.807V305.835L425.544 305.821V305.846L425.521 305.835V305.861L425.496 305.846V305.875L425.473 305.861V305.886L425.45 305.872V305.9L425.425 305.886V305.914L425.402 305.9V305.929L425.379 305.914V305.94L425.354 305.926V305.954L425.331 305.94V305.965L425.308 305.954V305.979L425.286 305.965V305.991L425.26 305.979V306.005L425.237 305.991V306.019L425.215 306.005V306.033L425.189 306.019V306.044L425.166 306.033V306.059L425.144 306.044V306.073L425.118 306.059V306.084L425.096 306.07V306.098L425.073 306.084V306.109L425.047 306.098V306.124L425.025 306.109V306.138L425.002 306.124V306.152L424.979 306.138V306.163L424.954 306.149V306.177L424.931 306.163V306.191L424.908 306.177V306.203L424.883 306.189V306.217L424.86 306.203V306.228L424.837 306.217V306.242L424.812 306.228V306.256L424.789 306.242V306.27L424.766 306.256V306.282L424.744 306.268V306.296L424.718 306.282V306.307L424.696 306.293V306.321L424.673 306.307V306.336L424.647 306.321V306.347L424.625 306.336V306.361L424.602 306.347V306.375L424.577 306.361V306.387L424.554 306.375V306.401L424.531 306.387V306.415L424.508 306.401V306.426L424.483 306.412V306.44L424.46 306.426V306.454L424.438 306.44V313.352C431.393 318.017 435.648 325.902 435.648 334.327C435.648 337.001 434.726 339.486 433.089 341.448C432.57 341.522 432.051 341.564 431.529 341.564V341.575H431.503V341.59H431.481V341.604H431.458V341.615C431.45 341.615 431.441 341.618 431.433 341.618V341.629H431.41V341.64C431.401 341.64 431.396 341.643 431.387 341.643V341.655H431.364V341.669H431.339V341.683H431.316V341.694H431.294V341.708H431.268V341.722H431.245V341.734C431.237 341.734 431.228 341.737 431.223 341.737V341.748H431.197V341.759C431.191 341.759 431.183 341.762 431.174 341.762V341.773H431.152V341.788H431.129V341.799H431.103V341.813H431.081V341.827H431.058V341.838C431.05 341.838 431.041 341.841 431.033 341.841V341.853H431.01V341.864C431.001 341.867 430.993 341.867 430.987 341.867V341.878H430.962V341.892H430.939V341.906H430.916V341.918H430.894V341.932H430.868V341.946H430.845V341.957C430.837 341.957 430.828 341.96 430.823 341.96V341.971H430.797V341.983C430.789 341.983 430.78 341.985 430.774 341.985V341.997H430.752V342.011H430.726V342.025H430.704V342.036H430.678V342.05H430.658V342.065H430.633V342.076C430.624 342.076 430.616 342.079 430.61 342.079V342.09H430.584V342.101C430.579 342.101 430.57 342.104 430.562 342.104V342.115H430.539V342.13H430.513V342.144H430.491V342.155H430.468V342.169H430.445V342.18C430.437 342.18 430.428 342.183 430.423 342.183V342.195H430.397V342.209H430.372V342.22C430.366 342.22 430.357 342.223 430.349 342.223V342.234H430.326V342.248H430.304V342.263H430.278V342.274H430.255V342.288H430.233V342.299C430.224 342.299 430.216 342.302 430.207 342.302V342.313H430.184V342.328H430.162V342.339H430.136V342.353H430.113V342.367H430.091V342.378C430.082 342.378 430.074 342.381 430.068 342.381V342.393H430.043V342.404C430.037 342.407 430.028 342.407 430.02 342.407V342.418C430.014 342.418 430.006 342.421 429.997 342.421V342.432H429.972V342.446H429.949V342.458H429.926V342.472H429.901V342.486H429.878V342.497C429.872 342.497 429.864 342.5 429.855 342.5V342.511H429.833V342.523C429.824 342.523 429.816 342.525 429.807 342.525V342.537H429.785V342.551H429.762V342.565H429.736V342.576H429.714V342.59H429.691V342.604H429.665V342.616C429.66 342.616 429.651 342.619 429.643 342.619V342.63H429.62V342.641C429.611 342.641 429.603 342.644 429.597 342.644V342.655H429.572V342.67H429.549V342.684H429.526V342.695H429.501V342.709H429.478V342.721C429.47 342.721 429.464 342.723 429.455 342.723V342.735H429.43V342.746C429.421 342.746 429.416 342.749 429.407 342.749V342.76C429.399 342.76 429.393 342.763 429.384 342.763V342.774H429.362V342.788H429.336V342.8H429.314V342.814H429.291V342.828H429.265V342.839C429.257 342.839 429.251 342.842 429.243 342.842V342.853H429.22V342.865C429.211 342.865 429.203 342.867 429.194 342.867V342.879H429.172V342.893H429.149V342.907H429.126V342.918H429.101V342.932H429.078V342.947H429.055V342.958C429.047 342.958 429.038 342.961 429.03 342.961V342.972H429.007V342.983C428.999 342.983 428.993 342.986 428.985 342.986V342.997H428.959V343.012H428.936V343.026H428.914V343.037H428.891V343.051H428.865V343.062C428.857 343.062 428.848 343.065 428.843 343.065V343.077H428.82V343.091H428.795V343.102C428.786 343.102 428.777 343.105 428.772 343.105V343.116H428.749V343.13H428.724V343.145H428.701V343.156H428.678V343.17H428.653V343.181C428.647 343.181 428.638 343.184 428.63 343.184V343.195H428.607V343.21H428.585V343.221H428.559V343.235H428.536V343.249H428.514V343.26C428.505 343.26 428.497 343.263 428.488 343.263V343.275H428.465V343.286C428.457 343.286 428.448 343.289 428.443 343.289V343.3C428.434 343.3 428.426 343.303 428.417 343.303V343.314H428.394V343.328H428.372V343.34H428.349V343.354H428.324V343.368H428.301V343.379C428.292 343.379 428.284 343.382 428.275 343.382V343.393H428.253V343.405C428.244 343.405 428.238 343.407 428.23 343.407V343.419H428.207V343.433H428.182V343.447H428.159V343.458H428.134V343.472H428.114V343.487H428.088V343.498C428.08 343.498 428.071 343.501 428.066 343.501V343.512H428.04V343.523C428.034 343.523 428.026 343.526 428.017 343.526V343.537H427.995V343.552H427.969V343.566H427.946V343.577H427.924V343.591H427.898V343.603C427.892 343.603 427.884 343.605 427.875 343.605V343.617H427.853V343.628C427.844 343.628 427.836 343.631 427.827 343.631V343.642C427.822 343.642 427.813 343.645 427.805 343.645V343.656H427.782V343.67H427.759V343.685H427.734V343.696H427.711V343.71H427.688V343.721C427.68 343.721 427.671 343.724 427.663 343.724V343.735H427.64V343.747C427.634 343.747 427.626 343.75 427.617 343.75V343.761H427.592V343.775H427.569V343.789H427.546V343.8C427.538 343.8 427.532 343.803 427.524 343.803V343.815H427.498V343.826C427.492 343.829 427.484 343.829 427.475 343.829V343.84C427.47 343.84 427.461 343.843 427.453 343.843V343.854H427.427V343.865C427.422 343.865 427.413 343.868 427.404 343.868V343.88H427.382V343.894H427.356V343.908H427.334V343.919H427.311V343.933H427.288V343.945C427.28 343.945 427.271 343.947 427.263 343.947V343.959H427.24V343.973H427.217V343.984C427.209 343.984 427.2 343.987 427.192 343.987V343.998H427.169V344.012H427.146V344.027H427.121V344.038H427.098V344.052H427.076V344.063C427.067 344.063 427.059 344.066 427.053 344.066V344.078H427.027V344.092H427.005V344.103H426.982V344.117H426.956V344.131H426.934V344.143C426.925 344.143 426.919 344.145 426.911 344.145V344.157H426.885V344.168C426.88 344.168 426.871 344.171 426.863 344.171V344.182C426.854 344.182 426.849 344.185 426.84 344.185V344.196H426.817V344.21H426.792V344.222H426.769V344.236H426.746V344.25H426.721V344.261C426.712 344.261 426.707 344.264 426.698 344.264V344.275H426.676V344.287C426.667 344.287 426.658 344.289 426.65 344.289V344.301H426.627V344.315H426.605V344.329H426.582V344.34H426.556V344.354H426.534V344.369H426.511V344.38C426.502 344.38 426.494 344.383 426.485 344.383V344.391C426.477 344.394 426.468 344.394 426.463 344.394V344.405C426.454 344.405 426.449 344.408 426.44 344.408V344.419H426.415V344.434H426.392V344.448H426.369V344.459H426.347V344.473H426.321V344.485C426.313 344.485 426.304 344.487 426.298 344.487V344.499H426.276V344.51C426.267 344.51 426.259 344.513 426.25 344.513V344.524C426.242 344.524 426.233 344.527 426.227 344.527V344.538H426.205V344.552H426.179V344.567H426.156V344.578H426.134V344.592H426.111V344.603C426.103 344.603 426.094 344.606 426.086 344.606V344.617H426.063V344.629C426.054 344.629 426.046 344.632 426.04 344.632V344.643H426.015V344.657H425.992V344.671H425.969V344.682C425.961 344.682 425.952 344.685 425.944 344.685V344.697H425.921V344.708C425.912 344.708 425.904 344.711 425.898 344.711V344.722C425.89 344.722 425.881 344.725 425.876 344.725V344.736H425.85V344.747C425.842 344.747 425.833 344.75 425.827 344.75V344.762H425.805V344.776H425.779V344.79H425.756V344.801C425.748 344.801 425.739 344.804 425.734 344.804V344.815H425.708V344.827C425.7 344.827 425.694 344.829 425.686 344.829V344.841H425.66V344.855H425.64V344.866H425.615V344.88H425.589V344.894H425.566V344.909H425.544V344.92H425.521V344.934H425.496V344.945C425.49 344.945 425.481 344.948 425.473 344.948V344.96H425.45V344.974H425.425V344.985H425.402V344.999H425.379V345.013H425.354V345.025C425.348 345.025 425.34 345.027 425.331 345.027V345.039H425.308V345.05C425.3 345.05 425.291 345.053 425.286 345.053V345.064C425.277 345.064 425.269 345.067 425.26 345.067V345.078H425.237V345.092H425.215V345.104H425.189V345.118H425.166V345.132H425.144V345.143C425.135 345.143 425.127 345.146 425.118 345.146V345.157H425.096V345.169C425.09 345.169 425.081 345.172 425.073 345.172V345.183H425.047V345.197H425.025V345.211H425.002V345.222H424.979V345.237H424.954V345.251H424.931V345.262C424.922 345.262 424.917 345.265 424.908 345.265V345.273C424.9 345.273 424.891 345.276 424.883 345.276V345.287C424.874 345.287 424.869 345.29 424.86 345.29V345.302H424.837V345.316H424.812V345.33H424.789V345.341H424.766V345.355H424.744V345.367C424.735 345.367 424.727 345.369 424.718 345.369V345.381H424.696V345.392C424.687 345.392 424.681 345.395 424.673 345.395V345.406H424.647V345.42H424.625V345.435H424.602V345.449H424.577V345.46H424.554V345.474H424.531V345.485C424.523 345.485 424.517 345.488 424.508 345.488V345.5H424.483V345.511C424.474 345.511 424.469 345.514 424.46 345.514V345.525H424.438V351.459C427.385 351.459 430.332 350.684 433.018 349.138C433.021 349.135 433.024 349.135 433.024 349.132C433.03 349.13 433.035 349.127 433.041 349.124C433.044 349.124 433.044 349.121 433.047 349.121C433.052 349.115 433.058 349.113 433.064 349.11C433.066 349.11 433.069 349.107 433.072 349.107C433.078 349.101 433.083 349.101 433.086 349.098C433.089 349.096 433.092 349.096 433.095 349.093L433.112 349.084C433.115 349.084 433.117 349.081 433.117 349.081C433.123 349.076 433.129 349.076 433.135 349.07C433.137 349.07 433.14 349.067 433.143 349.067L433.157 349.059C433.16 349.056 433.163 349.056 433.166 349.053C433.171 349.05 433.177 349.048 433.183 349.045C433.186 349.045 433.186 349.042 433.188 349.042L433.205 349.033C433.208 349.031 433.211 349.028 433.211 349.028L433.228 349.019C433.231 349.016 433.234 349.016 433.237 349.014L433.254 349.005C433.257 349.005 433.259 349.002 433.259 349.002C433.265 348.997 433.271 348.994 433.276 348.991C433.279 348.991 433.282 348.988 433.282 348.988C433.288 348.985 433.293 348.982 433.299 348.98C433.302 348.977 433.305 348.977 433.308 348.974L433.322 348.965C433.325 348.965 433.327 348.963 433.33 348.963C433.336 348.96 433.342 348.957 433.347 348.951L433.356 348.949C433.361 348.946 433.364 348.943 433.37 348.94C433.373 348.937 433.376 348.937 433.378 348.934C433.381 348.932 433.387 348.929 433.393 348.926C433.395 348.926 433.398 348.923 433.401 348.923L433.418 348.915C433.421 348.912 433.421 348.912 433.424 348.909C433.429 348.906 433.435 348.903 433.441 348.9L433.449 348.895C433.455 348.892 433.458 348.889 433.463 348.886C433.466 348.886 433.469 348.884 433.472 348.884C433.478 348.878 433.483 348.875 433.489 348.872L433.498 348.869C433.5 348.867 433.506 348.864 433.512 348.861C433.515 348.861 433.517 348.858 433.517 348.858C433.523 348.852 433.529 348.85 433.537 348.847C433.537 348.847 433.54 348.844 433.543 348.844C433.549 348.841 433.554 348.838 433.56 348.835C433.56 348.833 433.563 348.83 433.566 348.83C433.571 348.827 433.577 348.824 433.583 348.821L433.591 348.816C433.597 348.813 433.602 348.81 433.605 348.807C433.608 348.807 433.611 348.807 433.614 348.804C433.617 348.802 433.622 348.799 433.631 348.796C433.631 348.793 433.634 348.793 433.637 348.79C433.642 348.787 433.648 348.785 433.654 348.782C433.656 348.782 433.659 348.779 433.659 348.776C433.665 348.773 433.673 348.77 433.676 348.768C433.679 348.768 433.682 348.765 433.682 348.765C433.688 348.759 433.696 348.759 433.702 348.754C433.702 348.754 433.705 348.751 433.707 348.751C433.713 348.748 433.719 348.745 433.724 348.742C433.727 348.742 433.73 348.739 433.733 348.739C433.736 348.734 433.741 348.734 433.747 348.728C433.75 348.728 433.753 348.725 433.753 348.725C433.759 348.722 433.767 348.72 433.773 348.717C433.773 348.714 433.776 348.714 433.778 348.711C433.784 348.708 433.79 348.705 433.795 348.703C433.795 348.7 433.798 348.7 433.801 348.697L433.818 348.691C433.821 348.689 433.824 348.689 433.824 348.686C433.829 348.683 433.835 348.68 433.844 348.677C433.844 348.674 433.846 348.674 433.849 348.672L433.866 348.663C433.866 348.663 433.869 348.66 433.872 348.66C433.878 348.655 433.883 348.652 433.889 348.649C433.892 348.649 433.895 348.646 433.898 348.646C433.9 348.643 433.909 348.64 433.912 348.638C433.915 348.635 433.917 348.635 433.917 348.632C433.923 348.629 433.932 348.626 433.937 348.624C433.937 348.624 433.94 348.621 433.943 348.621C433.949 348.618 433.954 348.615 433.96 348.609C433.963 348.609 433.966 348.609 433.966 348.607C433.971 348.604 433.977 348.601 433.983 348.598C433.985 348.595 433.988 348.595 433.991 348.592C433.997 348.59 434.003 348.587 434.008 348.584C434.008 348.581 434.011 348.581 434.014 348.578C434.02 348.575 434.025 348.573 434.031 348.573C434.031 348.57 434.034 348.57 434.037 348.567C434.042 348.564 434.048 348.561 434.054 348.558C434.056 348.556 434.059 348.556 434.062 348.553C434.065 348.55 434.073 348.547 434.079 348.544C434.079 348.544 434.082 348.541 434.085 348.541C434.09 348.536 434.096 348.536 434.102 348.53C434.102 348.53 434.105 348.527 434.107 348.527C434.113 348.524 434.119 348.522 434.125 348.519C434.127 348.516 434.13 348.516 434.133 348.513C434.139 348.51 434.144 348.507 434.15 348.505C434.15 348.505 434.153 348.502 434.156 348.502C434.159 348.499 434.167 348.496 434.173 348.493C434.173 348.491 434.176 348.488 434.178 348.488L434.195 348.479C434.198 348.476 434.201 348.476 434.201 348.474C434.21 348.471 434.212 348.468 434.218 348.465C434.221 348.465 434.224 348.462 434.227 348.459L434.244 348.454C434.244 348.451 434.246 348.451 434.249 348.448C434.255 348.445 434.261 348.442 434.266 348.44C434.269 348.44 434.269 348.437 434.272 348.434L434.289 348.426C434.292 348.426 434.295 348.423 434.297 348.423C434.303 348.42 434.309 348.417 434.314 348.411C434.314 348.411 434.317 348.409 434.32 348.409L434.343 348.397C434.348 348.394 434.354 348.392 434.36 348.386C434.363 348.386 434.365 348.383 434.368 348.383L434.385 348.375C434.385 348.372 434.388 348.372 434.391 348.369C434.397 348.366 434.402 348.363 434.408 348.361C434.408 348.358 434.411 348.358 434.414 348.355L434.431 348.346C434.434 348.346 434.436 348.344 434.439 348.344C434.445 348.338 434.448 348.338 434.453 348.335C434.456 348.332 434.459 348.332 434.462 348.329L434.479 348.321C434.482 348.321 434.482 348.318 434.485 348.318C434.49 348.312 434.496 348.31 434.502 348.307C434.505 348.307 434.505 348.304 434.507 348.304L434.524 348.296C434.527 348.293 434.53 348.293 434.533 348.29L434.556 348.279C434.561 348.276 434.567 348.273 434.573 348.267C434.575 348.267 434.575 348.264 434.578 348.264L434.595 348.256C434.598 348.253 434.601 348.253 434.604 348.25C434.609 348.247 434.615 348.245 434.621 348.242C434.621 348.239 434.624 348.239 434.627 348.236L434.644 348.228C434.646 348.228 434.646 348.225 434.649 348.225C434.655 348.222 434.661 348.219 434.666 348.216C434.669 348.214 434.672 348.214 434.675 348.211L434.689 348.202C434.692 348.202 434.695 348.199 434.697 348.199C434.703 348.194 434.709 348.194 434.714 348.188C434.717 348.188 434.717 348.185 434.72 348.185L434.737 348.177C434.74 348.174 434.74 348.174 434.743 348.171C434.749 348.168 434.754 348.166 434.76 348.163C434.763 348.16 434.766 348.16 434.768 348.16L434.785 348.151C434.788 348.149 434.788 348.149 434.791 348.146C434.797 348.143 434.802 348.14 434.808 348.137C434.811 348.134 434.811 348.134 434.814 348.132L434.831 348.123C434.834 348.123 434.836 348.12 434.839 348.12C434.845 348.115 434.851 348.112 434.856 348.109C434.859 348.109 434.859 348.106 434.862 348.106L434.885 348.095C434.89 348.089 434.896 348.086 434.902 348.083C434.905 348.083 434.907 348.081 434.91 348.081C434.916 348.078 434.919 348.075 434.924 348.069C434.927 348.069 434.93 348.066 434.933 348.066L434.95 348.058C434.953 348.055 434.956 348.055 434.956 348.052C434.961 348.049 434.967 348.047 434.973 348.044C434.975 348.044 434.975 348.041 434.978 348.041L434.995 348.033C434.998 348.03 435.001 348.03 435.004 348.027C435.01 348.024 435.015 348.021 435.021 348.018C435.024 348.016 435.024 348.016 435.027 348.013L435.044 348.004C435.046 348.004 435.049 348.001 435.049 348.001C435.055 347.996 435.061 347.993 435.066 347.99C435.069 347.99 435.072 347.987 435.075 347.987L435.092 347.979C435.095 347.979 435.095 347.976 435.097 347.973L435.114 347.965C435.117 347.965 435.117 347.962 435.12 347.962C435.126 347.959 435.131 347.956 435.137 347.951C435.14 347.951 435.143 347.948 435.146 347.948L435.16 347.939C435.163 347.936 435.165 347.936 435.168 347.934L435.185 347.925C435.188 347.925 435.188 347.922 435.191 347.922L435.208 347.914C435.211 347.911 435.214 347.911 435.214 347.908C435.219 347.905 435.225 347.903 435.231 347.9C435.233 347.9 435.236 347.897 435.239 347.894L435.256 347.886C435.259 347.886 435.259 347.883 435.262 347.883C435.268 347.877 435.273 347.877 435.279 347.871C435.282 347.871 435.282 347.869 435.285 347.869L435.302 347.86C435.304 347.86 435.307 347.857 435.31 347.857C435.316 347.854 435.321 347.852 435.327 347.846C435.33 347.846 435.33 347.843 435.333 347.843L435.35 347.835C435.353 347.832 435.353 347.832 435.355 347.829C435.361 347.826 435.367 347.823 435.373 347.821C435.375 347.818 435.378 347.818 435.381 347.815L435.395 347.806C435.398 347.806 435.401 347.806 435.404 347.804C435.409 347.801 435.415 347.798 435.421 347.795C435.424 347.792 435.424 347.792 435.426 347.789L435.443 347.781C435.446 347.781 435.449 347.778 435.449 347.775L435.466 347.767C435.469 347.767 435.472 347.764 435.475 347.764L435.492 347.756C435.495 347.753 435.497 347.75 435.497 347.75L435.514 347.741C435.517 347.741 435.517 347.739 435.52 347.739C435.526 347.736 435.531 347.733 435.537 347.727L435.546 347.724C435.551 347.722 435.557 347.719 435.563 347.716C435.565 347.713 435.565 347.713 435.568 347.71C435.574 347.708 435.58 347.705 435.585 347.702C435.588 347.699 435.591 347.699 435.591 347.696L435.608 347.691C435.611 347.688 435.614 347.688 435.617 347.685C435.622 347.682 435.628 347.679 435.631 347.676C435.634 347.674 435.636 347.674 435.639 347.671L435.656 347.662C435.659 347.662 435.659 347.659 435.662 347.659C435.668 347.654 435.673 347.654 435.679 347.648L435.687 347.645C435.693 347.642 435.696 347.64 435.702 347.637C435.704 347.634 435.707 347.634 435.71 347.631C435.716 347.628 435.721 347.628 435.727 347.623L435.736 347.62C435.739 347.617 435.744 347.614 435.75 347.611C435.753 347.608 435.756 347.608 435.756 347.606C435.761 347.603 435.767 347.6 435.773 347.597C435.775 347.594 435.778 347.594 435.781 347.591L435.798 347.583C435.801 347.583 435.804 347.58 435.804 347.58C435.809 347.575 435.815 347.572 435.821 347.572L435.829 347.566C435.832 347.563 435.841 347.56 435.843 347.558C435.846 347.555 435.849 347.555 435.852 347.555C435.858 347.549 435.863 347.546 435.866 347.543L435.875 347.541C435.88 347.538 435.886 347.535 435.892 347.529C435.895 347.529 435.897 347.527 435.897 347.527L435.914 347.518C435.917 347.515 435.92 347.515 435.923 347.512C435.926 347.512 435.934 347.51 435.94 347.504C435.94 347.504 435.943 347.501 435.946 347.501L435.963 347.493L435.971 347.487C435.977 347.484 435.982 347.481 435.985 347.478C435.988 347.476 435.991 347.476 435.991 347.473C435.997 347.47 436.005 347.467 436.008 347.464L436.016 347.461C436.022 347.456 436.028 347.453 436.033 347.453C436.036 347.45 436.039 347.45 436.039 347.447L436.056 347.439C436.059 347.439 436.062 347.436 436.062 347.436C436.067 347.43 436.076 347.428 436.082 347.425C436.082 347.425 436.084 347.422 436.087 347.422C436.093 347.419 436.099 347.416 436.101 347.413C436.104 347.411 436.107 347.408 436.11 347.408L436.127 347.399C436.13 347.396 436.133 347.396 436.133 347.394C436.138 347.394 436.144 347.391 436.153 347.385C436.153 347.385 436.155 347.382 436.158 347.382L436.175 347.374C436.175 347.371 436.178 347.371 436.181 347.368C436.187 347.365 436.192 347.363 436.198 347.36C436.201 347.36 436.204 347.357 436.204 347.354C436.209 347.351 436.218 347.348 436.221 347.346C436.223 347.346 436.226 347.343 436.229 347.343C436.235 347.337 436.241 347.337 436.246 347.334C436.246 347.331 436.249 347.331 436.252 347.329C436.258 347.326 436.263 347.323 436.269 347.32C436.272 347.32 436.275 347.317 436.277 347.317C436.28 347.312 436.286 347.312 436.292 347.306C436.294 347.306 436.297 347.303 436.297 347.303C436.303 347.3 436.311 347.298 436.317 347.295C436.317 347.292 436.32 347.289 436.323 347.289C436.328 347.286 436.334 347.283 436.34 347.281C436.34 347.278 436.343 347.278 436.345 347.278C436.351 347.275 436.357 347.272 436.363 347.269C436.365 347.266 436.368 347.266 436.371 347.264C436.377 347.261 436.382 347.258 436.388 347.255C436.388 347.252 436.391 347.252 436.394 347.25C436.397 347.247 436.405 347.244 436.411 347.241C436.411 347.241 436.414 347.238 436.416 347.235L436.433 347.227C436.436 347.227 436.439 347.224 436.439 347.224C436.445 347.221 436.453 347.218 436.456 347.216C436.459 347.213 436.462 347.213 436.465 347.21L436.482 347.201C436.482 347.201 436.485 347.199 436.487 347.199C436.493 347.196 436.499 347.193 436.504 347.187C436.507 347.187 436.51 347.184 436.513 347.184L436.527 347.176C436.53 347.173 436.533 347.173 436.536 347.17C436.541 347.167 436.547 347.165 436.553 347.162C436.553 347.159 436.555 347.159 436.558 347.159L436.575 347.15C436.575 347.148 436.578 347.148 436.581 347.145C436.587 347.142 436.592 347.139 436.598 347.136C436.601 347.134 436.604 347.134 436.607 347.131L436.624 347.122C436.624 347.122 436.626 347.119 436.629 347.119C436.635 347.117 436.641 347.114 436.646 347.108C436.649 347.108 436.649 347.105 436.652 347.105L436.669 347.097C436.672 347.097 436.675 347.094 436.677 347.094C436.683 347.088 436.689 347.085 436.692 347.083C436.694 347.083 436.697 347.08 436.7 347.08L436.717 347.071C436.717 347.069 436.72 347.069 436.723 347.066C436.728 347.063 436.734 347.06 436.74 347.057C436.743 347.054 436.746 347.054 436.748 347.052L436.763 347.043C436.765 347.043 436.768 347.04 436.771 347.04C436.777 347.037 436.782 347.035 436.788 347.032C436.791 347.029 436.791 347.029 436.794 347.026C436.799 347.023 436.805 347.02 436.811 347.018C436.811 347.015 436.814 347.015 436.816 347.012L436.833 347.004C436.836 347.004 436.839 347.001 436.842 347.001C436.848 346.998 436.853 346.995 436.859 346.989C436.862 346.989 436.862 346.987 436.865 346.987L436.882 346.978C436.884 346.978 436.884 346.975 436.887 346.975C436.893 346.972 436.899 346.97 436.904 346.964C436.907 346.964 436.91 346.961 436.91 346.961C436.918 346.958 436.924 346.955 436.927 346.953C436.93 346.95 436.933 346.95 436.935 346.947C436.941 346.944 436.947 346.941 436.952 346.939C436.955 346.936 436.955 346.936 436.958 346.933L436.975 346.924C436.978 346.924 436.981 346.924 436.984 346.922C436.987 346.919 436.992 346.916 436.998 346.913C437.001 346.91 437.004 346.91 437.006 346.907L437.023 346.899C437.026 346.899 437.026 346.896 437.029 346.896C437.035 346.89 437.04 346.888 437.046 346.885C437.049 346.885 437.049 346.882 437.052 346.882L437.069 346.874C437.072 346.871 437.074 346.868 437.077 346.868C437.083 346.865 437.089 346.862 437.094 346.859C437.097 346.859 437.097 346.857 437.1 346.857C437.106 346.854 437.111 346.851 437.117 346.845L437.14 346.834C437.143 346.831 437.145 346.831 437.148 346.828C437.154 346.825 437.16 346.823 437.162 346.82C437.165 346.82 437.168 346.817 437.171 346.814L437.211 346.794C437.213 346.792 437.216 346.792 437.219 346.789L437.233 346.78C437.236 346.78 437.239 346.777 437.242 346.777C437.248 346.772 437.253 346.772 437.259 346.766C437.262 346.766 437.262 346.763 437.265 346.763L437.282 346.755C437.284 346.752 437.284 346.749 437.287 346.749C437.293 346.746 437.299 346.743 437.304 346.741C437.307 346.741 437.31 346.738 437.313 346.738L437.33 346.729C437.333 346.726 437.333 346.726 437.335 346.724C437.341 346.721 437.347 346.718 437.353 346.715C437.355 346.712 437.355 346.712 437.358 346.709L437.375 346.701C437.378 346.701 437.381 346.698 437.384 346.695L437.401 346.687C437.401 346.687 437.404 346.687 437.406 346.684L437.423 346.676C437.426 346.673 437.426 346.673 437.429 346.67L437.446 346.661C437.449 346.661 437.452 346.659 437.455 346.659C437.457 346.656 437.463 346.653 437.469 346.647C437.472 346.647 437.475 346.644 437.477 346.644L437.494 346.636C437.497 346.633 437.497 346.633 437.5 346.63C437.506 346.63 437.511 346.627 437.517 346.622C437.52 346.622 437.52 346.619 437.523 346.619L437.54 346.611C437.543 346.608 437.545 346.608 437.548 346.605C437.554 346.602 437.56 346.599 437.565 346.596C437.568 346.594 437.571 346.594 437.571 346.591L437.588 346.582C437.591 346.582 437.591 346.579 437.594 346.579C437.599 346.574 437.605 346.571 437.611 346.571C437.614 346.568 437.616 346.568 437.619 346.565L437.636 346.557C437.636 346.557 437.639 346.554 437.642 346.554C437.648 346.548 437.653 346.546 437.659 346.543C437.662 346.543 437.665 346.54 437.665 346.54C437.67 346.537 437.676 346.534 437.682 346.529C437.684 346.529 437.687 346.529 437.69 346.526C437.696 346.523 437.699 346.52 437.704 346.517C437.707 346.514 437.71 346.514 437.713 346.512C437.718 346.512 437.724 346.509 437.73 346.503C437.733 346.503 437.735 346.5 437.735 346.5L437.752 346.492C437.755 346.489 437.755 346.489 437.758 346.486C437.764 346.483 437.769 346.481 437.775 346.478C437.778 346.478 437.781 346.475 437.784 346.472L437.801 346.464C437.803 346.464 437.803 346.461 437.806 346.461C437.812 346.455 437.818 346.455 437.823 346.452C437.826 346.449 437.829 346.449 437.829 346.447L437.846 346.438C437.849 346.438 437.852 346.435 437.855 346.435C437.86 346.432 437.866 346.43 437.872 346.424C437.872 346.424 437.874 346.421 437.877 346.421L437.894 346.413C437.897 346.41 437.897 346.41 437.9 346.407C437.906 346.404 437.911 346.401 437.917 346.399C437.92 346.396 437.923 346.396 437.925 346.393L437.94 346.387C437.942 346.384 437.945 346.384 437.948 346.382C437.954 346.379 437.959 346.376 437.965 346.373C437.968 346.37 437.971 346.37 437.971 346.367L437.988 346.359C437.991 346.359 437.994 346.356 437.994 346.356C437.999 346.351 438.005 346.348 438.011 346.345C438.013 346.345 438.016 346.342 438.019 346.342C438.025 346.339 438.03 346.336 438.036 346.334C438.039 346.334 438.039 346.331 438.042 346.331C438.047 346.325 438.053 346.322 438.059 346.319L438.067 346.317C438.07 346.314 438.076 346.311 438.081 346.305C438.084 346.305 438.087 346.302 438.09 346.302L438.107 346.294C438.11 346.291 438.11 346.291 438.113 346.288C438.118 346.285 438.124 346.283 438.13 346.28C438.133 346.277 438.135 346.277 438.135 346.277L438.152 346.268L438.161 346.263C438.167 346.26 438.172 346.257 438.175 346.254C438.178 346.251 438.181 346.251 438.184 346.249L438.201 346.24C438.203 346.24 438.206 346.237 438.209 346.234C438.212 346.232 438.218 346.232 438.223 346.226C438.226 346.226 438.229 346.223 438.229 346.223L438.246 346.215C438.249 346.215 438.252 346.212 438.255 346.212C438.26 346.206 438.266 346.203 438.272 346.201C438.274 346.201 438.277 346.198 438.277 346.198L438.294 346.189C438.297 346.186 438.3 346.184 438.303 346.184C438.306 346.181 438.311 346.178 438.317 346.175C438.32 346.172 438.323 346.172 438.325 346.169L438.342 346.161C438.345 346.161 438.345 346.158 438.348 346.158C438.354 346.155 438.36 346.153 438.365 346.15C438.368 346.147 438.371 346.147 438.371 346.144C438.377 346.141 438.382 346.138 438.391 346.136C438.391 346.133 438.394 346.133 438.396 346.13C438.402 346.127 438.408 346.124 438.411 346.121C438.413 346.121 438.416 346.119 438.419 346.119C438.425 346.116 438.43 346.113 438.436 346.107C438.439 346.107 438.442 346.104 438.442 346.104C438.447 346.102 438.456 346.099 438.462 346.096L438.464 346.093C438.47 346.09 438.479 346.088 438.484 346.082C438.484 346.082 438.487 346.079 438.49 346.079C438.496 346.076 438.501 346.073 438.507 346.071C438.51 346.068 438.513 346.068 438.513 346.065C438.518 346.062 438.524 346.059 438.53 346.056C438.533 346.054 438.535 346.054 438.538 346.051C438.541 346.048 438.55 346.045 438.555 346.042C438.555 346.042 438.558 346.039 438.561 346.039C438.567 346.037 438.572 346.034 438.578 346.031C438.581 346.028 438.581 346.028 438.584 346.025C438.589 346.023 438.595 346.02 438.601 346.017C438.603 346.017 438.606 346.014 438.609 346.011L438.626 346.003C438.626 346.003 438.629 346 438.632 346C438.637 345.997 438.643 345.994 438.649 345.989C438.649 345.989 438.652 345.986 438.654 345.986L438.671 345.977C438.674 345.977 438.677 345.974 438.677 345.974C438.686 345.972 438.691 345.969 438.697 345.963C438.697 345.963 438.7 345.96 438.703 345.96L438.72 345.952C438.72 345.949 438.723 345.949 438.725 345.946C438.731 345.943 438.737 345.941 438.742 345.938C438.745 345.938 438.748 345.935 438.751 345.932L438.765 345.924C438.768 345.924 438.771 345.924 438.771 345.921C438.779 345.918 438.785 345.915 438.791 345.912C438.791 345.909 438.793 345.909 438.796 345.907L438.813 345.898C438.816 345.898 438.819 345.895 438.819 345.895C438.825 345.89 438.83 345.89 438.836 345.884C438.839 345.884 438.842 345.881 438.845 345.881L438.862 345.873C438.862 345.87 438.864 345.87 438.867 345.867C438.873 345.864 438.879 345.864 438.884 345.859C438.884 345.859 438.887 345.856 438.89 345.856L438.907 345.847C438.91 345.844 438.913 345.844 438.915 345.842C438.921 345.839 438.927 345.836 438.932 345.833C438.932 345.83 438.935 345.83 438.938 345.827L438.955 345.819C438.955 345.819 438.958 345.816 438.961 345.816C438.967 345.81 438.972 345.808 438.978 345.805C438.981 345.805 438.984 345.805 438.986 345.802L439.001 345.793C439.003 345.793 439.006 345.791 439.006 345.791C439.015 345.785 439.02 345.782 439.026 345.779C439.026 345.779 439.029 345.776 439.032 345.776C439.037 345.774 439.043 345.771 439.049 345.765C439.052 345.765 439.054 345.762 439.054 345.762L439.071 345.754C439.074 345.751 439.077 345.751 439.08 345.748C439.086 345.745 439.091 345.745 439.097 345.74C439.097 345.74 439.1 345.737 439.103 345.737L439.12 345.728C439.12 345.726 439.123 345.726 439.125 345.723C439.131 345.72 439.137 345.717 439.142 345.714C439.145 345.711 439.148 345.711 439.148 345.709C439.157 345.706 439.162 345.703 439.168 345.7C439.171 345.7 439.171 345.697 439.174 345.695L439.191 345.686C439.191 345.686 439.193 345.686 439.196 345.683L439.213 345.675C439.216 345.675 439.219 345.672 439.222 345.672C439.228 345.666 439.233 345.663 439.236 345.661C439.239 345.661 439.242 345.658 439.245 345.658L439.262 345.649C439.264 345.646 439.264 345.644 439.267 345.644L439.284 345.635C439.287 345.632 439.29 345.632 439.29 345.63C439.296 345.627 439.301 345.627 439.307 345.624C439.31 345.621 439.313 345.618 439.315 345.618L439.332 345.61C439.335 345.607 439.335 345.607 439.338 345.604C439.344 345.601 439.35 345.598 439.355 345.596C439.358 345.593 439.358 345.593 439.361 345.59L439.378 345.581C439.381 345.581 439.384 345.579 439.386 345.579C439.392 345.573 439.398 345.573 439.403 345.57C439.406 345.567 439.406 345.567 439.409 345.565L439.426 345.556C439.429 345.556 439.429 345.553 439.432 345.553C439.437 345.55 439.443 345.548 439.449 345.542C439.452 345.542 439.454 345.539 439.457 345.539L439.471 345.531C439.474 345.528 439.477 345.528 439.48 345.525C439.486 345.522 439.491 345.519 439.497 345.516C439.497 345.514 439.5 345.514 439.503 345.511L439.52 345.505C439.522 345.502 439.525 345.502 439.528 345.5C439.531 345.497 439.537 345.494 439.542 345.491C439.545 345.488 439.548 345.488 439.551 345.485L439.568 345.477C439.571 345.477 439.571 345.474 439.573 345.474C439.579 345.468 439.585 345.466 439.591 345.463C439.593 345.463 439.593 345.46 439.596 345.46L439.613 345.451C439.616 345.451 439.619 345.449 439.622 345.446L439.639 345.437C439.642 345.437 439.642 345.435 439.644 345.435C439.65 345.432 439.656 345.429 439.661 345.423C439.664 345.423 439.664 345.42 439.667 345.42L439.684 345.412C439.687 345.409 439.69 345.409 439.693 345.406C439.698 345.403 439.704 345.401 439.707 345.398C439.71 345.395 439.713 345.395 439.715 345.392L439.732 345.386C439.735 345.384 439.735 345.384 439.738 345.381C439.744 345.378 439.749 345.375 439.755 345.372C439.758 345.369 439.761 345.369 439.764 345.367L439.778 345.358C439.781 345.358 439.783 345.355 439.786 345.355C439.792 345.352 439.798 345.35 439.803 345.344C439.806 345.344 439.806 345.341 439.809 345.341L439.826 345.333C439.829 345.333 439.829 345.33 439.832 345.33C439.837 345.324 439.843 345.324 439.849 345.319C439.852 345.319 439.854 345.316 439.857 345.316L439.874 345.307C439.877 345.304 439.877 345.304 439.88 345.302C439.886 345.299 439.891 345.296 439.897 345.293C439.9 345.29 439.9 345.29 439.903 345.287L439.92 345.279C439.922 345.279 439.925 345.276 439.928 345.276C439.934 345.273 439.939 345.27 439.942 345.268C439.945 345.265 439.948 345.265 439.951 345.262L439.968 345.254C439.971 345.254 439.971 345.251 439.974 345.251C439.979 345.245 439.985 345.242 439.991 345.239C439.993 345.239 439.996 345.237 439.999 345.237C440.002 345.234 440.008 345.231 440.013 345.225C440.016 345.225 440.019 345.222 440.022 345.222L440.039 345.214C440.042 345.214 440.044 345.211 440.044 345.211C440.05 345.205 440.056 345.205 440.061 345.2C440.064 345.2 440.064 345.197 440.067 345.197C440.073 345.194 440.078 345.191 440.084 345.189C440.087 345.186 440.09 345.186 440.093 345.183C440.098 345.18 440.104 345.177 440.11 345.174C445.477 342.081 448.684 336.546 448.684 330.366C448.684 319.25 442.683 308.894 433.027 303.339Z" fill="#CC0000"/>
<path fill-rule="evenodd" clip-rule="evenodd" d="M425.935 307.304L424.438 306.441V313.354C431.393 318.021 435.648 325.906 435.648 334.331C435.648 338.368 433.551 341.99 430.043 344.011C428.29 345.02 426.361 345.526 424.438 345.529V351.463C427.385 351.46 430.332 350.686 433.018 349.139C438.388 346.046 441.593 340.511 441.593 334.331C441.593 323.215 435.591 312.859 425.935 307.304Z" fill="#990000"/>
<path opacity="0.25" fill-rule="evenodd" clip-rule="evenodd" d="M389.285 263.756L389.919 280.93L390.112 286.215C393.952 287.285 396.609 287.844 400.62 287.844C403.331 287.844 406.73 287.161 409.253 286.367L410.973 280.386L422.932 238.861C430.099 213.991 422.053 186.657 403.209 171.877C390.541 161.935 382.798 146.39 381.21 129.76C380.329 120.596 381.315 111.109 384.374 102.055L411.157 22.8496C414.181 13.9431 409.955 3.99038 401.995 1.21906C400.108 0.554932 398.168 0.356521 396.279 0.605453C392.202 1.12169 388.417 3.6597 386.014 7.7354L329.831 103.412C316.468 126.174 316.429 152.88 334.969 176.521C353.51 200.16 383.014 210.476 389.285 263.756Z" fill="#BABBBC"/>
</g>
<defs>
<clipPath id="clip0_2640_8615">
<rect width="520" height="378" fill="white" transform="matrix(-1 0 0 1 520 0.5)"/>
</clipPath>
</defs>
</svg>
